<svg width="343" height="116" viewBox="0 0 343 116" fill="none" xmlns="http://www.w3.org/2000/svg">
<g filter="url(#filter0_d_2012_1584)">
<rect x="16" y="12.7159" width="154.541" height="66.5408" rx="33.2704" fill="white" shape-rendering="crispEdges"/>
<circle cx="49.2704" cy="45.9863" r="21.2704" fill="#FFCC6A"/>
<path d="M49.3955 41.2362C48.4313 41.2362 47.4888 41.5221 46.6871 42.0578C45.8854 42.5935 45.2606 43.3548 44.8916 44.2456C44.5226 45.1364 44.4261 46.1166 44.6142 47.0623C44.8023 48.0079 45.2666 48.8766 45.9484 49.5584C46.6301 50.2401 47.4988 50.7044 48.4444 50.8925C49.3901 51.0806 50.3703 50.9841 51.2611 50.6151C52.1519 50.2461 52.9132 49.6213 53.4489 48.8196C53.9846 48.0179 54.2705 47.0754 54.2705 46.1112C54.2692 44.8187 53.7551 43.5795 52.8412 42.6655C51.9272 41.7516 50.688 41.2376 49.3955 41.2362ZM49.3955 48.5487C48.9134 48.5487 48.4422 48.4057 48.0413 48.1379C47.6405 47.8701 47.328 47.4894 47.1436 47.044C46.9591 46.5986 46.9108 46.1085 47.0048 45.6357C47.0989 45.1628 47.331 44.7285 47.6719 44.3876C48.0128 44.0467 48.4471 43.8146 48.92 43.7205C49.3928 43.6265 49.8829 43.6748 50.3283 43.8592C50.7737 44.0437 51.1544 44.3562 51.4222 44.757C51.6901 45.1578 51.833 45.6291 51.833 46.1112C51.833 46.7577 51.5762 47.3777 51.1191 47.8348C50.662 48.2919 50.042 48.5487 49.3955 48.5487ZM54.2705 35.1425H44.5205C42.9049 35.1443 41.356 35.787 40.2137 36.9294C39.0713 38.0717 38.4286 39.6206 38.4268 41.2362V50.9862C38.4286 52.6018 39.0713 54.1507 40.2137 55.2931C41.356 56.4355 42.9049 57.0781 44.5205 57.08H54.2705C55.8861 57.0781 57.435 56.4355 58.5774 55.2931C59.7198 54.1507 60.3624 52.6018 60.3643 50.9862V41.2362C60.3624 39.6206 59.7198 38.0717 58.5774 36.9294C57.435 35.787 55.8861 35.1443 54.2705 35.1425ZM57.9268 50.9862C57.9268 51.9559 57.5415 52.8859 56.8559 53.5716C56.1702 54.2572 55.2402 54.6425 54.2705 54.6425H44.5205C43.5508 54.6425 42.6208 54.2572 41.9351 53.5716C41.2495 52.8859 40.8643 51.9559 40.8643 50.9862V41.2362C40.8643 40.2665 41.2495 39.3365 41.9351 38.6508C42.6208 37.9652 43.5508 37.58 44.5205 37.58H54.2705C55.2402 37.58 56.1702 37.9652 56.8559 38.6508C57.5415 39.3365 57.9268 40.2665 57.9268 41.2362V50.9862ZM56.3018 40.83C56.3018 41.1514 56.2065 41.4655 56.0279 41.7328C55.8493 42 55.5955 42.2083 55.2986 42.3313C55.0017 42.4543 54.675 42.4864 54.3597 42.4237C54.0445 42.361 53.755 42.2063 53.5277 41.979C53.3004 41.7517 53.1457 41.4622 53.083 41.147C53.0203 40.8318 53.0525 40.505 53.1755 40.2081C53.2984 39.9112 53.5067 39.6574 53.774 39.4788C54.0412 39.3003 54.3554 39.205 54.6768 39.205C55.1077 39.205 55.5211 39.3762 55.8258 39.6809C56.1306 39.9857 56.3018 40.399 56.3018 40.83Z" fill="#7551DC"/>
<path d="M85.501 44.2503C84.3597 44.2503 83.357 44.0263 82.493 43.5783C81.629 43.1303 80.957 42.4903 80.477 41.6583C79.997 40.8369 79.757 39.8663 79.757 38.7463C79.757 37.6049 79.949 36.5436 80.333 35.5623C80.7277 34.5809 81.277 33.7276 81.981 33.0023C82.6957 32.2663 83.5383 31.6956 84.509 31.2903C85.4903 30.8743 86.573 30.6663 87.757 30.6663C88.9517 30.6663 89.9863 30.8956 90.861 31.3543C91.7463 31.8129 92.429 32.4529 92.909 33.2743C93.3997 34.0849 93.645 35.0289 93.645 36.1063C93.645 36.7356 93.5704 37.3436 93.421 37.9303C93.2717 38.5169 93.0423 39.0503 92.733 39.5303C92.4343 39.9996 92.0717 40.3783 91.645 40.6663C91.2183 40.9436 90.7223 41.0823 90.157 41.0823C89.485 41.0823 88.9943 40.8796 88.685 40.4743C88.3863 40.0689 88.2797 39.5409 88.365 38.8903L88.413 38.3623L88.701 38.9543C88.4343 39.6156 88.013 40.1383 87.437 40.5223C86.8717 40.8956 86.2477 41.0823 85.565 41.0823C84.7757 41.0823 84.1517 40.8423 83.693 40.3623C83.245 39.8716 83.021 39.2049 83.021 38.3623C83.021 37.7756 83.1117 37.2156 83.293 36.6823C83.485 36.1489 83.7463 35.6743 84.077 35.2583C84.4077 34.8316 84.8023 34.4956 85.261 34.2503C85.7303 34.0049 86.2477 33.8823 86.813 33.8823C87.453 33.8823 87.9597 34.0529 88.333 34.3943C88.7063 34.7249 88.9303 35.2103 89.005 35.8503L88.669 36.0583L89.037 34.0423H90.365L89.581 38.5223C89.5063 38.9596 89.5277 39.3169 89.645 39.5943C89.7623 39.8609 90.0077 39.9943 90.381 39.9943C90.7117 39.9943 90.9997 39.8769 91.245 39.6423C91.4903 39.4076 91.6983 39.1036 91.869 38.7303C92.0397 38.3463 92.1677 37.9303 92.253 37.4823C92.3383 37.0343 92.381 36.5969 92.381 36.1703C92.381 35.2529 92.1837 34.4689 91.789 33.8183C91.405 33.1676 90.8557 32.6663 90.141 32.3143C89.4263 31.9516 88.573 31.7703 87.581 31.7703C86.621 31.7703 85.741 31.9463 84.941 32.2983C84.141 32.6503 83.4477 33.1409 82.861 33.7703C82.2743 34.3889 81.821 35.1143 81.501 35.9463C81.181 36.7783 81.021 37.6689 81.021 38.6183C81.021 39.5783 81.2077 40.3943 81.581 41.0663C81.965 41.7383 82.509 42.2449 83.213 42.5863C83.9277 42.9383 84.7703 43.1143 85.741 43.1143C86.2103 43.1143 86.6743 43.0663 87.133 42.9703C87.6023 42.8849 88.0343 42.7516 88.429 42.5703L88.701 43.6423C88.2103 43.8449 87.693 43.9943 87.149 44.0903C86.6157 44.1969 86.0663 44.2503 85.501 44.2503ZM86.061 39.8823C86.477 39.8823 86.861 39.7703 87.213 39.5463C87.565 39.3116 87.8583 38.9916 88.093 38.5863C88.3277 38.1703 88.4663 37.6956 88.509 37.1623C88.5517 36.7783 88.5143 36.4316 88.397 36.1223C88.2903 35.8023 88.109 35.5516 87.853 35.3703C87.6077 35.1783 87.2877 35.0823 86.893 35.0823C86.5197 35.0823 86.1783 35.1676 85.869 35.3383C85.5703 35.5089 85.3143 35.7383 85.101 36.0263C84.8983 36.3143 84.7383 36.6396 84.621 37.0023C84.5143 37.3649 84.461 37.7329 84.461 38.1063C84.461 38.6396 84.5943 39.0716 84.861 39.4023C85.1277 39.7223 85.5277 39.8823 86.061 39.8823ZM96.4869 40.9863V36.8263L92.7909 29.7863H94.5989L97.5109 35.7063H97.0789L99.9589 29.7863H101.751L98.0869 36.8263V40.9863H96.4869ZM104.452 41.1783C103.694 41.1783 103.012 41.0076 102.404 40.6663C101.806 40.3143 101.332 39.8236 100.98 39.1943C100.638 38.5543 100.468 37.8129 100.468 36.9703C100.468 36.1276 100.644 35.3916 100.996 34.7623C101.348 34.1223 101.828 33.6316 102.436 33.2903C103.044 32.9383 103.721 32.7623 104.468 32.7623C105.236 32.7623 105.918 32.9383 106.516 33.2903C107.124 33.6316 107.598 34.1169 107.94 34.7463C108.292 35.3756 108.468 36.1169 108.468 36.9703C108.468 37.8129 108.292 38.5543 107.94 39.1943C107.588 39.8236 107.108 40.3143 106.5 40.6663C105.902 41.0076 105.22 41.1783 104.452 41.1783ZM104.452 39.8023C104.889 39.8023 105.284 39.7009 105.636 39.4983C105.998 39.2849 106.286 38.9649 106.5 38.5383C106.724 38.1116 106.836 37.5889 106.836 36.9703C106.836 36.3409 106.729 35.8183 106.516 35.4023C106.302 34.9756 106.014 34.6609 105.652 34.4583C105.3 34.2449 104.91 34.1383 104.484 34.1383C104.068 34.1383 103.673 34.2449 103.3 34.4583C102.937 34.6609 102.644 34.9756 102.42 35.4023C102.206 35.8183 102.1 36.3409 102.1 36.9703C102.1 37.5889 102.206 38.1116 102.42 38.5383C102.644 38.9649 102.932 39.2849 103.284 39.4983C103.646 39.7009 104.036 39.8023 104.452 39.8023ZM112.318 41.1783C111.689 41.1783 111.145 41.0503 110.686 40.7943C110.227 40.5383 109.87 40.1543 109.614 39.6423C109.369 39.1196 109.246 38.4689 109.246 37.6903V32.9543H110.846V37.5303C110.846 38.2876 111.006 38.8583 111.326 39.2423C111.657 39.6263 112.131 39.8183 112.75 39.8183C113.177 39.8183 113.555 39.7169 113.886 39.5143C114.227 39.3116 114.494 39.0183 114.686 38.6343C114.878 38.2503 114.974 37.7809 114.974 37.2263V32.9543H116.574V40.9863H115.15L115.038 39.6103C114.793 40.0903 114.43 40.4743 113.95 40.7623C113.481 41.0396 112.937 41.1783 112.318 41.1783ZM117.789 40.9863V32.9543H119.229L119.373 34.4743C119.554 34.1116 119.784 33.8076 120.061 33.5623C120.349 33.3063 120.685 33.1089 121.069 32.9703C121.464 32.8316 121.906 32.7623 122.397 32.7623V34.4423H121.869C121.528 34.4423 121.208 34.4849 120.909 34.5703C120.61 34.6556 120.344 34.7943 120.109 34.9863C119.885 35.1783 119.709 35.4396 119.581 35.7703C119.453 36.1009 119.389 36.5116 119.389 37.0023V40.9863H117.789ZM127.931 41.1783C126.832 41.1783 125.883 40.9383 125.083 40.4583C124.283 39.9676 123.664 39.2903 123.227 38.4263C122.8 37.5516 122.587 36.5383 122.587 35.3863C122.587 34.2449 122.8 33.2369 123.227 32.3623C123.664 31.4876 124.283 30.8103 125.083 30.3303C125.883 29.8396 126.832 29.5943 127.931 29.5943C129.232 29.5943 130.293 29.9089 131.115 30.5383C131.936 31.1676 132.453 32.0529 132.667 33.1943H130.923C130.752 32.5329 130.416 32.0049 129.915 31.6103C129.424 31.2156 128.757 31.0183 127.915 31.0183C127.168 31.0183 126.512 31.1943 125.947 31.5463C125.392 31.8983 124.965 32.3996 124.667 33.0503C124.368 33.7009 124.219 34.4796 124.219 35.3863C124.219 36.2929 124.368 37.0769 124.667 37.7383C124.965 38.3889 125.392 38.8903 125.947 39.2423C126.512 39.5836 127.168 39.7543 127.915 39.7543C128.757 39.7543 129.424 39.5676 129.915 39.1943C130.416 38.8103 130.747 38.2929 130.907 37.6423H132.667C132.453 38.7516 131.936 39.6209 131.115 40.2503C130.293 40.8689 129.232 41.1783 127.931 41.1783ZM137.221 41.1783C136.464 41.1783 135.781 41.0076 135.173 40.6663C134.576 40.3143 134.101 39.8236 133.749 39.1943C133.408 38.5543 133.237 37.8129 133.237 36.9703C133.237 36.1276 133.413 35.3916 133.765 34.7623C134.117 34.1223 134.597 33.6316 135.205 33.2903C135.813 32.9383 136.49 32.7623 137.237 32.7623C138.005 32.7623 138.688 32.9383 139.285 33.2903C139.893 33.6316 140.368 34.1169 140.709 34.7463C141.061 35.3756 141.237 36.1169 141.237 36.9703C141.237 37.8129 141.061 38.5543 140.709 39.1943C140.357 39.8236 139.877 40.3143 139.269 40.6663C138.672 41.0076 137.989 41.1783 137.221 41.1783ZM137.221 39.8023C137.658 39.8023 138.053 39.7009 138.405 39.4983C138.768 39.2849 139.056 38.9649 139.269 38.5383C139.493 38.1116 139.605 37.5889 139.605 36.9703C139.605 36.3409 139.498 35.8183 139.285 35.4023C139.072 34.9756 138.784 34.6609 138.421 34.4583C138.069 34.2449 137.68 34.1383 137.253 34.1383C136.837 34.1383 136.442 34.2449 136.069 34.4583C135.706 34.6609 135.413 34.9756 135.189 35.4023C134.976 35.8183 134.869 36.3409 134.869 36.9703C134.869 37.5889 134.976 38.1116 135.189 38.5383C135.413 38.9649 135.701 39.2849 136.053 39.4983C136.416 39.7009 136.805 39.8023 137.221 39.8023Z" fill="#121212"/>
<path d="M80.257 58.9863V51.7143L78.901 52.0143V51.3183L80.593 50.5863H81.277V58.9863H80.257ZM82.5581 58.9863V58.2783C83.1261 57.8303 83.6621 57.3783 84.1661 56.9223C84.6781 56.4583 85.1301 56.0023 85.5221 55.5543C85.9221 55.1063 86.2341 54.6663 86.4581 54.2343C86.6901 53.8023 86.8061 53.3863 86.8061 52.9863C86.8061 52.6903 86.7541 52.4143 86.6501 52.1583C86.5541 51.9023 86.3941 51.6983 86.1701 51.5463C85.9461 51.3863 85.6421 51.3063 85.2581 51.3063C84.8901 51.3063 84.5821 51.3903 84.3341 51.5583C84.0861 51.7183 83.8981 51.9343 83.7701 52.2063C83.6501 52.4783 83.5901 52.7703 83.5901 53.0823H82.6181C82.6181 52.5303 82.7341 52.0583 82.9661 51.6663C83.1981 51.2663 83.5141 50.9623 83.9141 50.7543C84.3141 50.5463 84.7661 50.4423 85.2701 50.4423C86.0141 50.4423 86.6221 50.6543 87.0941 51.0783C87.5741 51.4943 87.8141 52.1183 87.8141 52.9503C87.8141 53.4463 87.6901 53.9383 87.4421 54.4263C87.1941 54.9063 86.8781 55.3743 86.4941 55.8303C86.1101 56.2783 85.6981 56.6983 85.2581 57.0903C84.8261 57.4823 84.4221 57.8343 84.0461 58.1463H88.1021V58.9863H82.5581ZM89.1973 58.9863V50.5863H90.2053V54.3903L93.7093 50.5863H94.9813L91.8613 53.9343L95.0293 58.9863H93.8053L91.1413 54.7143L90.2053 55.7103V58.9863H89.1973ZM98.6375 58.9863V50.5863H103.749V51.4143H99.6455V54.3663H103.137V55.1823H99.6455V58.9863H98.6375ZM107.082 59.1303C106.522 59.1303 106.018 59.0023 105.57 58.7463C105.122 58.4903 104.766 58.1303 104.502 57.6663C104.246 57.1943 104.118 56.6423 104.118 56.0103C104.118 55.3783 104.25 54.8303 104.514 54.3663C104.778 53.8943 105.134 53.5303 105.582 53.2743C106.038 53.0183 106.546 52.8903 107.106 52.8903C107.666 52.8903 108.17 53.0183 108.618 53.2743C109.066 53.5303 109.418 53.8943 109.674 54.3663C109.938 54.8303 110.07 55.3783 110.07 56.0103C110.07 56.6423 109.938 57.1943 109.674 57.6663C109.41 58.1303 109.05 58.4903 108.594 58.7463C108.146 59.0023 107.642 59.1303 107.082 59.1303ZM107.082 58.2663C107.426 58.2663 107.746 58.1823 108.042 58.0143C108.338 57.8463 108.578 57.5943 108.762 57.2583C108.946 56.9223 109.038 56.5063 109.038 56.0103C109.038 55.5143 108.946 55.0983 108.762 54.7623C108.586 54.4263 108.35 54.1743 108.054 54.0063C107.758 53.8383 107.442 53.7543 107.106 53.7543C106.762 53.7543 106.442 53.8383 106.146 54.0063C105.85 54.1743 105.61 54.4263 105.426 54.7623C105.242 55.0983 105.15 55.5143 105.15 56.0103C105.15 56.5063 105.242 56.9223 105.426 57.2583C105.61 57.5943 105.846 57.8463 106.134 58.0143C106.43 58.1823 106.746 58.2663 107.082 58.2663ZM111.111 58.9863V50.3463H112.119V58.9863H111.111ZM113.412 58.9863V50.3463H114.42V58.9863H113.412ZM118.424 59.1303C117.864 59.1303 117.36 59.0023 116.912 58.7463C116.464 58.4903 116.108 58.1303 115.844 57.6663C115.588 57.1943 115.46 56.6423 115.46 56.0103C115.46 55.3783 115.592 54.8303 115.856 54.3663C116.12 53.8943 116.476 53.5303 116.924 53.2743C117.38 53.0183 117.888 52.8903 118.448 52.8903C119.008 52.8903 119.512 53.0183 119.96 53.2743C120.408 53.5303 120.76 53.8943 121.016 54.3663C121.28 54.8303 121.412 55.3783 121.412 56.0103C121.412 56.6423 121.28 57.1943 121.016 57.6663C120.752 58.1303 120.392 58.4903 119.936 58.7463C119.488 59.0023 118.984 59.1303 118.424 59.1303ZM118.424 58.2663C118.768 58.2663 119.088 58.1823 119.384 58.0143C119.68 57.8463 119.92 57.5943 120.104 57.2583C120.288 56.9223 120.38 56.5063 120.38 56.0103C120.38 55.5143 120.288 55.0983 120.104 54.7623C119.928 54.4263 119.692 54.1743 119.396 54.0063C119.1 53.8383 118.784 53.7543 118.448 53.7543C118.104 53.7543 117.784 53.8383 117.488 54.0063C117.192 54.1743 116.952 54.4263 116.768 54.7623C116.584 55.0983 116.492 55.5143 116.492 56.0103C116.492 56.5063 116.584 56.9223 116.768 57.2583C116.952 57.5943 117.188 57.8463 117.476 58.0143C117.772 58.1823 118.088 58.2663 118.424 58.2663ZM123.431 58.9863L121.691 53.0343H122.699L123.959 57.7023L125.351 53.0343H126.491L127.895 57.7023L129.143 53.0343H130.163L128.423 58.9863H127.391L125.927 54.0783L124.463 58.9863H123.431ZM133.371 59.1303C132.803 59.1303 132.299 59.0023 131.859 58.7463C131.419 58.4823 131.071 58.1183 130.815 57.6543C130.567 57.1903 130.443 56.6423 130.443 56.0103C130.443 55.3863 130.567 54.8423 130.815 54.3783C131.063 53.9063 131.407 53.5423 131.847 53.2863C132.295 53.0223 132.811 52.8903 133.395 52.8903C133.971 52.8903 134.467 53.0223 134.883 53.2863C135.307 53.5423 135.631 53.8823 135.855 54.3063C136.079 54.7303 136.191 55.1863 136.191 55.6743C136.191 55.7623 136.187 55.8503 136.179 55.9383C136.179 56.0263 136.179 56.1263 136.179 56.2383H131.439C131.463 56.6943 131.567 57.0743 131.751 57.3783C131.943 57.6743 132.179 57.8983 132.459 58.0503C132.747 58.2023 133.051 58.2783 133.371 58.2783C133.787 58.2783 134.135 58.1823 134.415 57.9903C134.695 57.7983 134.899 57.5383 135.027 57.2103H136.023C135.863 57.7623 135.555 58.2223 135.099 58.5903C134.651 58.9503 134.075 59.1303 133.371 59.1303ZM133.371 53.7423C132.891 53.7423 132.463 53.8903 132.087 54.1863C131.719 54.4743 131.507 54.8983 131.451 55.4583H135.195C135.171 54.9223 134.987 54.5023 134.643 54.1983C134.299 53.8943 133.875 53.7423 133.371 53.7423ZM137.167 58.9863V53.0343H138.079L138.163 54.1743C138.347 53.7823 138.627 53.4703 139.003 53.2383C139.379 53.0063 139.843 52.8903 140.395 52.8903V53.9463H140.119C139.767 53.9463 139.443 54.0103 139.147 54.1383C138.851 54.2583 138.615 54.4663 138.439 54.7623C138.263 55.0583 138.175 55.4663 138.175 55.9863V58.9863H137.167ZM143.446 59.1303C142.734 59.1303 142.142 58.9503 141.67 58.5903C141.198 58.2303 140.922 57.7423 140.842 57.1263H141.874C141.938 57.4383 142.102 57.7103 142.366 57.9423C142.638 58.1663 143.002 58.2783 143.458 58.2783C143.882 58.2783 144.194 58.1903 144.394 58.0143C144.594 57.8303 144.694 57.6143 144.694 57.3663C144.694 57.0063 144.562 56.7663 144.298 56.6463C144.042 56.5263 143.678 56.4183 143.206 56.3223C142.886 56.2583 142.566 56.1663 142.246 56.0463C141.926 55.9263 141.658 55.7583 141.442 55.5423C141.226 55.3183 141.118 55.0263 141.118 54.6663C141.118 54.1463 141.31 53.7223 141.694 53.3943C142.086 53.0583 142.614 52.8903 143.278 52.8903C143.91 52.8903 144.426 53.0503 144.826 53.3703C145.234 53.6823 145.47 54.1303 145.534 54.7143H144.538C144.498 54.4103 144.366 54.1743 144.142 54.0063C143.926 53.8303 143.634 53.7423 143.266 53.7423C142.906 53.7423 142.626 53.8183 142.426 53.9703C142.234 54.1223 142.138 54.3223 142.138 54.5703C142.138 54.8103 142.262 54.9983 142.51 55.1343C142.766 55.2703 143.11 55.3863 143.542 55.4823C143.91 55.5623 144.258 55.6623 144.586 55.7823C144.922 55.8943 145.194 56.0663 145.402 56.2983C145.618 56.5223 145.726 56.8503 145.726 57.2823C145.734 57.8183 145.53 58.2623 145.114 58.6143C144.706 58.9583 144.15 59.1303 143.446 59.1303Z" fill="#9E9E9E"/>
</g>
<g filter="url(#filter1_d_2012_1584)">
<rect x="180.541" y="12.7159" width="151.541" height="66.5408" rx="33.2704" fill="white" shape-rendering="crispEdges"/>
<circle cx="213.811" cy="45.9863" r="21.2704" fill="#FFCC6A"/>
<path d="M222.514 54.3946L216.319 44.665L222.384 37.9933C222.597 37.7534 222.707 37.4393 222.689 37.119C222.672 36.7988 222.53 36.4983 222.292 36.2826C222.055 36.0669 221.742 35.9534 221.422 35.9668C221.101 35.9802 220.799 36.1194 220.58 36.3541L214.967 42.5332L211.139 36.5196C211.029 36.3467 210.877 36.2043 210.698 36.1056C210.518 36.0068 210.316 35.9551 210.111 35.955H205.236C205.018 35.9551 204.804 36.0138 204.616 36.125C204.428 36.2363 204.274 36.396 204.169 36.5873C204.063 36.7787 204.012 36.9948 204.019 37.213C204.026 37.4312 204.091 37.6436 204.209 37.8278L210.404 47.5575L204.335 54.2291C204.225 54.3471 204.139 54.4858 204.083 54.6371C204.027 54.7884 204.002 54.9493 204.009 55.1104C204.016 55.2715 204.054 55.4297 204.123 55.5758C204.191 55.7219 204.288 55.853 204.407 55.9615C204.526 56.0699 204.666 56.1536 204.818 56.2077C204.97 56.2618 205.131 56.2852 205.292 56.2765C205.453 56.2678 205.611 56.2273 205.756 56.1572C205.901 56.0872 206.031 55.989 206.138 55.8683L211.756 49.6893L215.584 55.7028C215.694 55.8757 215.845 56.0182 216.025 56.1169C216.205 56.2156 216.406 56.2674 216.611 56.2675H221.486C221.705 56.2674 221.919 56.2086 222.107 56.0974C222.295 55.9861 222.449 55.8265 222.554 55.6351C222.659 55.4437 222.711 55.2276 222.704 55.0094C222.697 54.7912 222.631 54.5789 222.514 54.3946ZM217.281 53.83L207.457 38.3925H209.442L219.266 53.83H217.281Z" fill="#7551DC"/>
<path d="M250.042 42.2503C248.901 42.2503 247.898 42.0263 247.034 41.5783C246.17 41.1303 245.498 40.4903 245.018 39.6583C244.538 38.8369 244.298 37.8663 244.298 36.7463C244.298 35.6049 244.49 34.5436 244.874 33.5623C245.269 32.5809 245.818 31.7276 246.522 31.0023C247.237 30.2663 248.079 29.6956 249.05 29.2903C250.031 28.8743 251.114 28.6663 252.298 28.6663C253.493 28.6663 254.527 28.8956 255.402 29.3543C256.287 29.8129 256.97 30.4529 257.45 31.2743C257.941 32.0849 258.186 33.0289 258.186 34.1063C258.186 34.7356 258.111 35.3436 257.962 35.9303C257.813 36.5169 257.583 37.0503 257.274 37.5303C256.975 37.9996 256.613 38.3783 256.186 38.6663C255.759 38.9436 255.263 39.0823 254.698 39.0823C254.026 39.0823 253.535 38.8796 253.226 38.4743C252.927 38.0689 252.821 37.5409 252.906 36.8903L252.954 36.3623L253.242 36.9543C252.975 37.6156 252.554 38.1383 251.978 38.5223C251.413 38.8956 250.789 39.0823 250.106 39.0823C249.317 39.0823 248.693 38.8423 248.234 38.3623C247.786 37.8716 247.562 37.2049 247.562 36.3623C247.562 35.7756 247.653 35.2156 247.834 34.6823C248.026 34.1489 248.287 33.6743 248.618 33.2583C248.949 32.8316 249.343 32.4956 249.802 32.2503C250.271 32.0049 250.789 31.8823 251.354 31.8823C251.994 31.8823 252.501 32.0529 252.874 32.3943C253.247 32.7249 253.471 33.2103 253.546 33.8503L253.21 34.0583L253.578 32.0423H254.906L254.122 36.5223C254.047 36.9596 254.069 37.3169 254.186 37.5943C254.303 37.8609 254.549 37.9943 254.922 37.9943C255.253 37.9943 255.541 37.8769 255.786 37.6423C256.031 37.4076 256.239 37.1036 256.41 36.7303C256.581 36.3463 256.709 35.9303 256.794 35.4823C256.879 35.0343 256.922 34.5969 256.922 34.1703C256.922 33.2529 256.725 32.4689 256.33 31.8183C255.946 31.1676 255.397 30.6663 254.682 30.3143C253.967 29.9516 253.114 29.7703 252.122 29.7703C251.162 29.7703 250.282 29.9463 249.482 30.2983C248.682 30.6503 247.989 31.1409 247.402 31.7703C246.815 32.3889 246.362 33.1143 246.042 33.9463C245.722 34.7783 245.562 35.6689 245.562 36.6183C245.562 37.5783 245.749 38.3943 246.122 39.0663C246.506 39.7383 247.05 40.2449 247.754 40.5863C248.469 40.9383 249.311 41.1143 250.282 41.1143C250.751 41.1143 251.215 41.0663 251.674 40.9703C252.143 40.8849 252.575 40.7516 252.97 40.5703L253.242 41.6423C252.751 41.8449 252.234 41.9943 251.69 42.0903C251.157 42.1969 250.607 42.2503 250.042 42.2503ZM250.602 37.8823C251.018 37.8823 251.402 37.7703 251.754 37.5463C252.106 37.3116 252.399 36.9916 252.634 36.5863C252.869 36.1703 253.007 35.6956 253.05 35.1623C253.093 34.7783 253.055 34.4316 252.938 34.1223C252.831 33.8023 252.65 33.5516 252.394 33.3703C252.149 33.1783 251.829 33.0823 251.434 33.0823C251.061 33.0823 250.719 33.1676 250.41 33.3383C250.111 33.5089 249.855 33.7383 249.642 34.0263C249.439 34.3143 249.279 34.6396 249.162 35.0023C249.055 35.3649 249.002 35.7329 249.002 36.1063C249.002 36.6396 249.135 37.0716 249.402 37.4023C249.669 37.7223 250.069 37.8823 250.602 37.8823ZM261.028 38.9863V34.8263L257.332 27.7863H259.14L262.052 33.7063H261.62L264.5 27.7863H266.292L262.628 34.8263V38.9863H261.028ZM268.993 39.1783C268.235 39.1783 267.553 39.0076 266.945 38.6663C266.347 38.3143 265.873 37.8236 265.521 37.1943C265.179 36.5543 265.009 35.8129 265.009 34.9703C265.009 34.1276 265.185 33.3916 265.537 32.7623C265.889 32.1223 266.369 31.6316 266.977 31.2903C267.585 30.9383 268.262 30.7623 269.009 30.7623C269.777 30.7623 270.459 30.9383 271.057 31.2903C271.665 31.6316 272.139 32.1169 272.481 32.7463C272.833 33.3756 273.009 34.1169 273.009 34.9703C273.009 35.8129 272.833 36.5543 272.481 37.1943C272.129 37.8236 271.649 38.3143 271.041 38.6663C270.443 39.0076 269.761 39.1783 268.993 39.1783ZM268.993 37.8023C269.43 37.8023 269.825 37.7009 270.177 37.4983C270.539 37.2849 270.827 36.9649 271.041 36.5383C271.265 36.1116 271.377 35.5889 271.377 34.9703C271.377 34.3409 271.27 33.8183 271.057 33.4023C270.843 32.9756 270.555 32.6609 270.193 32.4583C269.841 32.2449 269.451 32.1383 269.025 32.1383C268.609 32.1383 268.214 32.2449 267.841 32.4583C267.478 32.6609 267.185 32.9756 266.961 33.4023C266.747 33.8183 266.641 34.3409 266.641 34.9703C266.641 35.5889 266.747 36.1116 266.961 36.5383C267.185 36.9649 267.473 37.2849 267.825 37.4983C268.187 37.7009 268.577 37.8023 268.993 37.8023ZM276.859 39.1783C276.23 39.1783 275.686 39.0503 275.227 38.7943C274.768 38.5383 274.411 38.1543 274.155 37.6423C273.91 37.1196 273.787 36.4689 273.787 35.6903V30.9543H275.387V35.5303C275.387 36.2876 275.547 36.8583 275.867 37.2423C276.198 37.6263 276.672 37.8183 277.291 37.8183C277.718 37.8183 278.096 37.7169 278.427 37.5143C278.768 37.3116 279.035 37.0183 279.227 36.6343C279.419 36.2503 279.515 35.7809 279.515 35.2263V30.9543H281.115V38.9863H279.691L279.579 37.6103C279.334 38.0903 278.971 38.4743 278.491 38.7623C278.022 39.0396 277.478 39.1783 276.859 39.1783ZM282.33 38.9863V30.9543H283.77L283.914 32.4743C284.095 32.1116 284.325 31.8076 284.602 31.5623C284.89 31.3063 285.226 31.1089 285.61 30.9703C286.005 30.8316 286.447 30.7623 286.938 30.7623V32.4423H286.41C286.069 32.4423 285.749 32.4849 285.45 32.5703C285.151 32.6556 284.885 32.7943 284.65 32.9863C284.426 33.1783 284.25 33.4396 284.122 33.7703C283.994 34.1009 283.93 34.5116 283.93 35.0023V38.9863H282.33ZM292.472 39.1783C291.373 39.1783 290.424 38.9383 289.624 38.4583C288.824 37.9676 288.205 37.2903 287.768 36.4263C287.341 35.5516 287.128 34.5383 287.128 33.3863C287.128 32.2449 287.341 31.2369 287.768 30.3623C288.205 29.4876 288.824 28.8103 289.624 28.3303C290.424 27.8396 291.373 27.5943 292.472 27.5943C293.773 27.5943 294.834 27.9089 295.656 28.5383C296.477 29.1676 296.994 30.0529 297.208 31.1943H295.464C295.293 30.5329 294.957 30.0049 294.456 29.6103C293.965 29.2156 293.298 29.0183 292.456 29.0183C291.709 29.0183 291.053 29.1943 290.488 29.5463C289.933 29.8983 289.506 30.3996 289.208 31.0503C288.909 31.7009 288.76 32.4796 288.76 33.3863C288.76 34.2929 288.909 35.0769 289.208 35.7383C289.506 36.3889 289.933 36.8903 290.488 37.2423C291.053 37.5836 291.709 37.7543 292.456 37.7543C293.298 37.7543 293.965 37.5676 294.456 37.1943C294.957 36.8103 295.288 36.2929 295.448 35.6423H297.208C296.994 36.7516 296.477 37.6209 295.656 38.2503C294.834 38.8689 293.773 39.1783 292.472 39.1783ZM301.762 39.1783C301.005 39.1783 300.322 39.0076 299.714 38.6663C299.117 38.3143 298.642 37.8236 298.29 37.1943C297.949 36.5543 297.778 35.8129 297.778 34.9703C297.778 34.1276 297.954 33.3916 298.306 32.7623C298.658 32.1223 299.138 31.6316 299.746 31.2903C300.354 30.9383 301.031 30.7623 301.778 30.7623C302.546 30.7623 303.229 30.9383 303.826 31.2903C304.434 31.6316 304.909 32.1169 305.25 32.7463C305.602 33.3756 305.778 34.1169 305.778 34.9703C305.778 35.8129 305.602 36.5543 305.25 37.1943C304.898 37.8236 304.418 38.3143 303.81 38.6663C303.213 39.0076 302.53 39.1783 301.762 39.1783ZM301.762 37.8023C302.199 37.8023 302.594 37.7009 302.946 37.4983C303.309 37.2849 303.597 36.9649 303.81 36.5383C304.034 36.1116 304.146 35.5889 304.146 34.9703C304.146 34.3409 304.039 33.8183 303.826 33.4023C303.613 32.9756 303.325 32.6609 302.962 32.4583C302.61 32.2449 302.221 32.1383 301.794 32.1383C301.378 32.1383 300.983 32.2449 300.61 32.4583C300.247 32.6609 299.954 32.9756 299.73 33.4023C299.517 33.8183 299.41 34.3409 299.41 34.9703C299.41 35.5889 299.517 36.1116 299.73 36.5383C299.954 36.9649 300.242 37.2849 300.594 37.4983C300.957 37.7009 301.346 37.8023 301.762 37.8023Z" fill="#121212"/>
<path d="M246.742 61.1303C246.19 61.1303 245.694 61.0303 245.254 60.8303C244.814 60.6223 244.466 60.3383 244.21 59.9783C243.962 59.6103 243.838 59.1863 243.838 58.7063C243.838 58.1943 243.986 57.7343 244.282 57.3263C244.586 56.9183 244.986 56.6463 245.482 56.5103C245.026 56.3583 244.674 56.1143 244.426 55.7783C244.178 55.4423 244.054 55.0743 244.054 54.6743C244.054 54.2663 244.162 53.8943 244.378 53.5583C244.594 53.2143 244.902 52.9423 245.302 52.7423C245.702 52.5423 246.182 52.4423 246.742 52.4423C247.302 52.4423 247.782 52.5423 248.182 52.7423C248.582 52.9423 248.89 53.2143 249.106 53.5583C249.322 53.8943 249.43 54.2663 249.43 54.6743C249.43 55.0663 249.306 55.4343 249.058 55.7783C248.81 56.1143 248.458 56.3583 248.002 56.5103C248.498 56.6463 248.894 56.9183 249.19 57.3263C249.494 57.7343 249.646 58.1943 249.646 58.7063C249.646 59.1863 249.518 59.6103 249.262 59.9783C249.014 60.3383 248.67 60.6223 248.23 60.8303C247.79 61.0303 247.294 61.1303 246.742 61.1303ZM246.742 56.1503C247.254 56.1503 247.658 56.0223 247.954 55.7663C248.258 55.5023 248.41 55.1583 248.41 54.7343C248.41 54.2623 248.262 53.9063 247.966 53.6663C247.67 53.4263 247.262 53.3063 246.742 53.3063C246.222 53.3063 245.814 53.4263 245.518 53.6663C245.23 53.9063 245.086 54.2623 245.086 54.7343C245.086 55.1583 245.234 55.5023 245.53 55.7663C245.826 56.0223 246.23 56.1503 246.742 56.1503ZM246.742 60.2423C247.374 60.2423 247.846 60.0983 248.158 59.8103C248.478 59.5143 248.638 59.1263 248.638 58.6463C248.638 58.1023 248.466 57.6903 248.122 57.4103C247.778 57.1303 247.318 56.9903 246.742 56.9903C246.166 56.9903 245.706 57.1303 245.362 57.4103C245.018 57.6903 244.846 58.1023 244.846 58.6463C244.846 59.1263 245.002 59.5143 245.314 59.8103C245.634 60.0983 246.11 60.2423 246.742 60.2423ZM250.934 60.9863V52.5863H251.942V56.3903L255.446 52.5863H256.718L253.598 55.9343L256.766 60.9863H255.542L252.878 56.7143L251.942 57.7103V60.9863H250.934ZM260.374 60.9863V52.5863H265.486V53.4143H261.382V56.3663H264.874V57.1823H261.382V60.9863H260.374ZM268.819 61.1303C268.259 61.1303 267.755 61.0023 267.307 60.7463C266.859 60.4903 266.503 60.1303 266.239 59.6663C265.983 59.1943 265.855 58.6423 265.855 58.0103C265.855 57.3783 265.987 56.8303 266.251 56.3663C266.515 55.8943 266.871 55.5303 267.319 55.2743C267.775 55.0183 268.283 54.8903 268.843 54.8903C269.403 54.8903 269.907 55.0183 270.355 55.2743C270.803 55.5303 271.155 55.8943 271.411 56.3663C271.675 56.8303 271.807 57.3783 271.807 58.0103C271.807 58.6423 271.675 59.1943 271.411 59.6663C271.147 60.1303 270.787 60.4903 270.331 60.7463C269.883 61.0023 269.379 61.1303 268.819 61.1303ZM268.819 60.2663C269.163 60.2663 269.483 60.1823 269.779 60.0143C270.075 59.8463 270.315 59.5943 270.499 59.2583C270.683 58.9223 270.775 58.5063 270.775 58.0103C270.775 57.5143 270.683 57.0983 270.499 56.7623C270.323 56.4263 270.087 56.1743 269.791 56.0063C269.495 55.8383 269.179 55.7543 268.843 55.7543C268.499 55.7543 268.179 55.8383 267.883 56.0063C267.587 56.1743 267.347 56.4263 267.163 56.7623C266.979 57.0983 266.887 57.5143 266.887 58.0103C266.887 58.5063 266.979 58.9223 267.163 59.2583C267.347 59.5943 267.583 59.8463 267.871 60.0143C268.167 60.1823 268.483 60.2663 268.819 60.2663ZM272.848 60.9863V52.3463H273.856V60.9863H272.848ZM275.148 60.9863V52.3463H276.156V60.9863H275.148ZM280.161 61.1303C279.601 61.1303 279.097 61.0023 278.649 60.7463C278.201 60.4903 277.845 60.1303 277.581 59.6663C277.325 59.1943 277.197 58.6423 277.197 58.0103C277.197 57.3783 277.329 56.8303 277.593 56.3663C277.857 55.8943 278.213 55.5303 278.661 55.2743C279.117 55.0183 279.625 54.8903 280.185 54.8903C280.745 54.8903 281.249 55.0183 281.697 55.2743C282.145 55.5303 282.497 55.8943 282.753 56.3663C283.017 56.8303 283.149 57.3783 283.149 58.0103C283.149 58.6423 283.017 59.1943 282.753 59.6663C282.489 60.1303 282.129 60.4903 281.673 60.7463C281.225 61.0023 280.721 61.1303 280.161 61.1303ZM280.161 60.2663C280.505 60.2663 280.825 60.1823 281.121 60.0143C281.417 59.8463 281.657 59.5943 281.841 59.2583C282.025 58.9223 282.117 58.5063 282.117 58.0103C282.117 57.5143 282.025 57.0983 281.841 56.7623C281.665 56.4263 281.429 56.1743 281.133 56.0063C280.837 55.8383 280.521 55.7543 280.185 55.7543C279.841 55.7543 279.521 55.8383 279.225 56.0063C278.929 56.1743 278.689 56.4263 278.505 56.7623C278.321 57.0983 278.229 57.5143 278.229 58.0103C278.229 58.5063 278.321 58.9223 278.505 59.2583C278.689 59.5943 278.925 59.8463 279.213 60.0143C279.509 60.1823 279.825 60.2663 280.161 60.2663ZM285.168 60.9863L283.428 55.0343H284.436L285.696 59.7023L287.088 55.0343H288.228L289.632 59.7023L290.88 55.0343H291.9L290.16 60.9863H289.128L287.664 56.0783L286.2 60.9863H285.168ZM295.108 61.1303C294.54 61.1303 294.036 61.0023 293.596 60.7463C293.156 60.4823 292.808 60.1183 292.552 59.6543C292.304 59.1903 292.18 58.6423 292.18 58.0103C292.18 57.3863 292.304 56.8423 292.552 56.3783C292.8 55.9063 293.144 55.5423 293.584 55.2863C294.032 55.0223 294.548 54.8903 295.132 54.8903C295.708 54.8903 296.204 55.0223 296.62 55.2863C297.044 55.5423 297.368 55.8823 297.592 56.3063C297.816 56.7303 297.928 57.1863 297.928 57.6743C297.928 57.7623 297.924 57.8503 297.916 57.9383C297.916 58.0263 297.916 58.1263 297.916 58.2383H293.176C293.2 58.6943 293.304 59.0743 293.488 59.3783C293.68 59.6743 293.916 59.8983 294.196 60.0503C294.484 60.2023 294.788 60.2783 295.108 60.2783C295.524 60.2783 295.872 60.1823 296.152 59.9903C296.432 59.7983 296.636 59.5383 296.764 59.2103H297.76C297.6 59.7623 297.292 60.2223 296.836 60.5903C296.388 60.9503 295.812 61.1303 295.108 61.1303ZM295.108 55.7423C294.628 55.7423 294.2 55.8903 293.824 56.1863C293.456 56.4743 293.244 56.8983 293.188 57.4583H296.932C296.908 56.9223 296.724 56.5023 296.38 56.1983C296.036 55.8943 295.612 55.7423 295.108 55.7423ZM298.904 60.9863V55.0343H299.816L299.9 56.1743C300.084 55.7823 300.364 55.4703 300.74 55.2383C301.116 55.0063 301.58 54.8903 302.132 54.8903V55.9463H301.856C301.504 55.9463 301.18 56.0103 300.884 56.1383C300.588 56.2583 300.352 56.4663 300.176 56.7623C300 57.0583 299.912 57.4663 299.912 57.9863V60.9863H298.904ZM305.183 61.1303C304.471 61.1303 303.879 60.9503 303.407 60.5903C302.935 60.2303 302.659 59.7423 302.579 59.1263H303.611C303.675 59.4383 303.839 59.7103 304.103 59.9423C304.375 60.1663 304.739 60.2783 305.195 60.2783C305.619 60.2783 305.931 60.1903 306.131 60.0143C306.331 59.8303 306.431 59.6143 306.431 59.3663C306.431 59.0063 306.299 58.7663 306.035 58.6463C305.779 58.5263 305.415 58.4183 304.943 58.3223C304.623 58.2583 304.303 58.1663 303.983 58.0463C303.663 57.9263 303.395 57.7583 303.179 57.5423C302.963 57.3183 302.855 57.0263 302.855 56.6663C302.855 56.1463 303.047 55.7223 303.431 55.3943C303.823 55.0583 304.351 54.8903 305.015 54.8903C305.647 54.8903 306.163 55.0503 306.563 55.3703C306.971 55.6823 307.207 56.1303 307.271 56.7143H306.275C306.235 56.4103 306.103 56.1743 305.879 56.0063C305.663 55.8303 305.371 55.7423 305.003 55.7423C304.643 55.7423 304.363 55.8183 304.163 55.9703C303.971 56.1223 303.875 56.3223 303.875 56.5703C303.875 56.8103 303.999 56.9983 304.247 57.1343C304.503 57.2703 304.847 57.3863 305.279 57.4823C305.647 57.5623 305.995 57.6623 306.323 57.7823C306.659 57.8943 306.931 58.0663 307.139 58.2983C307.355 58.5223 307.463 58.8503 307.463 59.2823C307.471 59.8183 307.267 60.2623 306.851 60.6143C306.443 60.9583 305.887 61.1303 305.183 61.1303Z" fill="#9E9E9E"/>
</g>
<defs>
<filter id="filter0_d_2012_1584" x="-18.2351" y="-1.90735e-06" width="203.448" height="115.448" filterUnits="userSpaceOnUse" color-interpolation-filters="sRGB">
<feFlood flood-opacity="0" result="BackgroundImageFix"/>
<feColorMatrix in="SourceAlpha" type="matrix" values="0 0 0 0 0 0 0 0 0 0 0 0 0 0 0 0 0 0 127 0" result="hardAlpha"/>
<feOffset dx="-9.78145" dy="11.7377"/>
<feGaussianBlur stdDeviation="12.2268"/>
<feComposite in2="hardAlpha" operator="out"/>
<feColorMatrix type="matrix" values="0 0 0 0 0.384371 0 0 0 0 0.102708 0 0 0 0 0.483333 0 0 0 0.05 0"/>
<feBlend mode="normal" in2="BackgroundImageFix" result="effect1_dropShadow_2012_1584"/>
<feBlend mode="normal" in="SourceGraphic" in2="effect1_dropShadow_2012_1584" result="shape"/>
</filter>
<filter id="filter1_d_2012_1584" x="146.306" y="-1.90735e-06" width="200.448" height="115.448" filterUnits="userSpaceOnUse" color-interpolation-filters="sRGB">
<feFlood flood-opacity="0" result="BackgroundImageFix"/>
<feColorMatrix in="SourceAlpha" type="matrix" values="0 0 0 0 0 0 0 0 0 0 0 0 0 0 0 0 0 0 127 0" result="hardAlpha"/>
<feOffset dx="-9.78145" dy="11.7377"/>
<feGaussianBlur stdDeviation="12.2268"/>
<feComposite in2="hardAlpha" operator="out"/>
<feColorMatrix type="matrix" values="0 0 0 0 0.384371 0 0 0 0 0.102708 0 0 0 0 0.483333 0 0 0 0.05 0"/>
<feBlend mode="normal" in2="BackgroundImageFix" result="effect1_dropShadow_2012_1584"/>
<feBlend mode="normal" in="SourceGraphic" in2="effect1_dropShadow_2012_1584" result="shape"/>
</filter>
</defs>
</svg>
