<svg width="22" height="20" viewBox="0 0 22 20" fill="none" xmlns="http://www.w3.org/2000/svg">
<path d="M4.73945 1.29898C7.24883 3.17671 9.94727 6.99234 10.9355 9.04195C11.9238 6.99664 14.6223 3.18101 17.1316 1.29898C18.9406 -0.0588339 21.8711 -1.10727 21.8711 2.2357C21.8711 2.90171 21.4887 7.84312 21.2652 8.64664C20.4832 11.431 17.6387 12.1443 15.1078 11.7103C19.5293 12.4623 20.6551 14.9544 18.223 17.4466C13.6082 22.1818 11.593 16.2607 11.0773 14.7439C11.0043 14.5334 10.9656 14.4087 10.9355 14.4087C10.9055 14.4087 10.8668 14.5377 10.7937 14.7439C10.2781 16.2607 8.25859 22.1818 3.64805 17.4466C1.22031 14.9544 2.3418 12.4623 6.76328 11.7103C4.23242 12.1443 1.38789 11.431 0.610156 8.64234C0.382422 7.83882 0 2.89742 0 2.2314C0 -1.11157 2.93047 -0.0631308 4.73945 1.29468V1.29898Z" fill="#062630"/>
</svg>
