<svg width="256" height="116" viewBox="0 0 256 116" fill="none" xmlns="http://www.w3.org/2000/svg">
<g filter="url(#filter0_d_2011_682)">
<rect x="24" y="12.7159" width="154.541" height="66.5408" rx="33.2704" fill="white" shape-rendering="crispEdges"/>
<circle cx="57.2704" cy="45.9863" r="21.2704" fill="#FFCC6A"/>
<path d="M57.3955 41.2362C56.4313 41.2362 55.4888 41.5221 54.6871 42.0578C53.8854 42.5935 53.2606 43.3548 52.8916 44.2456C52.5226 45.1364 52.4261 46.1166 52.6142 47.0623C52.8023 48.0079 53.2666 48.8766 53.9484 49.5584C54.6301 50.2401 55.4988 50.7044 56.4444 50.8925C57.3901 51.0806 58.3703 50.9841 59.2611 50.6151C60.1519 50.2461 60.9132 49.6213 61.4489 48.8196C61.9846 48.0179 62.2705 47.0754 62.2705 46.1112C62.2692 44.8187 61.7551 43.5795 60.8412 42.6655C59.9272 41.7516 58.688 41.2376 57.3955 41.2362ZM57.3955 48.5487C56.9134 48.5487 56.4422 48.4057 56.0413 48.1379C55.6405 47.8701 55.328 47.4894 55.1436 47.044C54.9591 46.5986 54.9108 46.1085 55.0048 45.6357C55.0989 45.1628 55.331 44.7285 55.6719 44.3876C56.0128 44.0467 56.4471 43.8146 56.92 43.7205C57.3928 43.6265 57.8829 43.6748 58.3283 43.8592C58.7737 44.0437 59.1544 44.3562 59.4222 44.757C59.6901 45.1578 59.833 45.6291 59.833 46.1112C59.833 46.7577 59.5762 47.3777 59.1191 47.8348C58.662 48.2919 58.042 48.5487 57.3955 48.5487ZM62.2705 35.1425H52.5205C50.9049 35.1443 49.356 35.787 48.2137 36.9294C47.0713 38.0717 46.4286 39.6206 46.4268 41.2362V50.9862C46.4286 52.6018 47.0713 54.1507 48.2137 55.2931C49.356 56.4355 50.9049 57.0781 52.5205 57.08H62.2705C63.8861 57.0781 65.435 56.4355 66.5774 55.2931C67.7198 54.1507 68.3624 52.6018 68.3643 50.9862V41.2362C68.3624 39.6206 67.7198 38.0717 66.5774 36.9294C65.435 35.787 63.8861 35.1443 62.2705 35.1425ZM65.9268 50.9862C65.9268 51.9559 65.5415 52.8859 64.8559 53.5716C64.1702 54.2572 63.2402 54.6425 62.2705 54.6425H52.5205C51.5508 54.6425 50.6208 54.2572 49.9351 53.5716C49.2495 52.8859 48.8643 51.9559 48.8643 50.9862V41.2362C48.8643 40.2665 49.2495 39.3365 49.9351 38.6508C50.6208 37.9652 51.5508 37.58 52.5205 37.58H62.2705C63.2402 37.58 64.1702 37.9652 64.8559 38.6508C65.5415 39.3365 65.9268 40.2665 65.9268 41.2362V50.9862ZM64.3018 40.83C64.3018 41.1514 64.2065 41.4655 64.0279 41.7328C63.8493 42 63.5955 42.2083 63.2986 42.3313C63.0017 42.4543 62.675 42.4864 62.3597 42.4237C62.0445 42.361 61.755 42.2063 61.5277 41.979C61.3004 41.7517 61.1457 41.4622 61.083 41.147C61.0203 40.8318 61.0525 40.505 61.1755 40.2081C61.2984 39.9112 61.5067 39.6574 61.774 39.4788C62.0412 39.3003 62.3554 39.205 62.6768 39.205C63.1077 39.205 63.5211 39.3762 63.8258 39.6809C64.1306 39.9857 64.3018 40.399 64.3018 40.83Z" fill="#7551DC"/>
<path d="M93.501 44.2503C92.3597 44.2503 91.357 44.0263 90.493 43.5783C89.629 43.1303 88.957 42.4903 88.477 41.6583C87.997 40.8369 87.757 39.8663 87.757 38.7463C87.757 37.6049 87.949 36.5436 88.333 35.5623C88.7277 34.5809 89.277 33.7276 89.981 33.0023C90.6957 32.2663 91.5383 31.6956 92.509 31.2903C93.4903 30.8743 94.573 30.6663 95.757 30.6663C96.9517 30.6663 97.9863 30.8956 98.861 31.3543C99.7463 31.8129 100.429 32.4529 100.909 33.2743C101.4 34.0849 101.645 35.0289 101.645 36.1063C101.645 36.7356 101.57 37.3436 101.421 37.9303C101.272 38.5169 101.042 39.0503 100.733 39.5303C100.434 39.9996 100.072 40.3783 99.645 40.6663C99.2183 40.9436 98.7223 41.0823 98.157 41.0823C97.485 41.0823 96.9943 40.8796 96.685 40.4743C96.3863 40.0689 96.2797 39.5409 96.365 38.8903L96.413 38.3623L96.701 38.9543C96.4343 39.6156 96.013 40.1383 95.437 40.5223C94.8717 40.8956 94.2477 41.0823 93.565 41.0823C92.7757 41.0823 92.1517 40.8423 91.693 40.3623C91.245 39.8716 91.021 39.2049 91.021 38.3623C91.021 37.7756 91.1117 37.2156 91.293 36.6823C91.485 36.1489 91.7463 35.6743 92.077 35.2583C92.4077 34.8316 92.8023 34.4956 93.261 34.2503C93.7303 34.0049 94.2477 33.8823 94.813 33.8823C95.453 33.8823 95.9597 34.0529 96.333 34.3943C96.7063 34.7249 96.9303 35.2103 97.005 35.8503L96.669 36.0583L97.037 34.0423H98.365L97.581 38.5223C97.5063 38.9596 97.5277 39.3169 97.645 39.5943C97.7623 39.8609 98.0077 39.9943 98.381 39.9943C98.7117 39.9943 98.9997 39.8769 99.245 39.6423C99.4903 39.4076 99.6983 39.1036 99.869 38.7303C100.04 38.3463 100.168 37.9303 100.253 37.4823C100.338 37.0343 100.381 36.5969 100.381 36.1703C100.381 35.2529 100.184 34.4689 99.789 33.8183C99.405 33.1676 98.8557 32.6663 98.141 32.3143C97.4263 31.9516 96.573 31.7703 95.581 31.7703C94.621 31.7703 93.741 31.9463 92.941 32.2983C92.141 32.6503 91.4477 33.1409 90.861 33.7703C90.2743 34.3889 89.821 35.1143 89.501 35.9463C89.181 36.7783 89.021 37.6689 89.021 38.6183C89.021 39.5783 89.2077 40.3943 89.581 41.0663C89.965 41.7383 90.509 42.2449 91.213 42.5863C91.9277 42.9383 92.7703 43.1143 93.741 43.1143C94.2103 43.1143 94.6743 43.0663 95.133 42.9703C95.6023 42.8849 96.0343 42.7516 96.429 42.5703L96.701 43.6423C96.2103 43.8449 95.693 43.9943 95.149 44.0903C94.6157 44.1969 94.0663 44.2503 93.501 44.2503ZM94.061 39.8823C94.477 39.8823 94.861 39.7703 95.213 39.5463C95.565 39.3116 95.8583 38.9916 96.093 38.5863C96.3277 38.1703 96.4663 37.6956 96.509 37.1623C96.5517 36.7783 96.5143 36.4316 96.397 36.1223C96.2903 35.8023 96.109 35.5516 95.853 35.3703C95.6077 35.1783 95.2877 35.0823 94.893 35.0823C94.5197 35.0823 94.1783 35.1676 93.869 35.3383C93.5703 35.5089 93.3143 35.7383 93.101 36.0263C92.8983 36.3143 92.7383 36.6396 92.621 37.0023C92.5143 37.3649 92.461 37.7329 92.461 38.1063C92.461 38.6396 92.5943 39.0716 92.861 39.4023C93.1277 39.7223 93.5277 39.8823 94.061 39.8823ZM104.487 40.9863V36.8263L100.791 29.7863H102.599L105.511 35.7063H105.079L107.959 29.7863H109.751L106.087 36.8263V40.9863H104.487ZM112.452 41.1783C111.694 41.1783 111.012 41.0076 110.404 40.6663C109.806 40.3143 109.332 39.8236 108.98 39.1943C108.638 38.5543 108.468 37.8129 108.468 36.9703C108.468 36.1276 108.644 35.3916 108.996 34.7623C109.348 34.1223 109.828 33.6316 110.436 33.2903C111.044 32.9383 111.721 32.7623 112.468 32.7623C113.236 32.7623 113.918 32.9383 114.516 33.2903C115.124 33.6316 115.598 34.1169 115.94 34.7463C116.292 35.3756 116.468 36.1169 116.468 36.9703C116.468 37.8129 116.292 38.5543 115.94 39.1943C115.588 39.8236 115.108 40.3143 114.5 40.6663C113.902 41.0076 113.22 41.1783 112.452 41.1783ZM112.452 39.8023C112.889 39.8023 113.284 39.7009 113.636 39.4983C113.998 39.2849 114.286 38.9649 114.5 38.5383C114.724 38.1116 114.836 37.5889 114.836 36.9703C114.836 36.3409 114.729 35.8183 114.516 35.4023C114.302 34.9756 114.014 34.6609 113.652 34.4583C113.3 34.2449 112.91 34.1383 112.484 34.1383C112.068 34.1383 111.673 34.2449 111.3 34.4583C110.937 34.6609 110.644 34.9756 110.42 35.4023C110.206 35.8183 110.1 36.3409 110.1 36.9703C110.1 37.5889 110.206 38.1116 110.42 38.5383C110.644 38.9649 110.932 39.2849 111.284 39.4983C111.646 39.7009 112.036 39.8023 112.452 39.8023ZM120.318 41.1783C119.689 41.1783 119.145 41.0503 118.686 40.7943C118.227 40.5383 117.87 40.1543 117.614 39.6423C117.369 39.1196 117.246 38.4689 117.246 37.6903V32.9543H118.846V37.5303C118.846 38.2876 119.006 38.8583 119.326 39.2423C119.657 39.6263 120.131 39.8183 120.75 39.8183C121.177 39.8183 121.555 39.7169 121.886 39.5143C122.227 39.3116 122.494 39.0183 122.686 38.6343C122.878 38.2503 122.974 37.7809 122.974 37.2263V32.9543H124.574V40.9863H123.15L123.038 39.6103C122.793 40.0903 122.43 40.4743 121.95 40.7623C121.481 41.0396 120.937 41.1783 120.318 41.1783ZM125.789 40.9863V32.9543H127.229L127.373 34.4743C127.554 34.1116 127.784 33.8076 128.061 33.5623C128.349 33.3063 128.685 33.1089 129.069 32.9703C129.464 32.8316 129.906 32.7623 130.397 32.7623V34.4423H129.869C129.528 34.4423 129.208 34.4849 128.909 34.5703C128.61 34.6556 128.344 34.7943 128.109 34.9863C127.885 35.1783 127.709 35.4396 127.581 35.7703C127.453 36.1009 127.389 36.5116 127.389 37.0023V40.9863H125.789ZM135.931 41.1783C134.832 41.1783 133.883 40.9383 133.083 40.4583C132.283 39.9676 131.664 39.2903 131.227 38.4263C130.8 37.5516 130.587 36.5383 130.587 35.3863C130.587 34.2449 130.8 33.2369 131.227 32.3623C131.664 31.4876 132.283 30.8103 133.083 30.3303C133.883 29.8396 134.832 29.5943 135.931 29.5943C137.232 29.5943 138.293 29.9089 139.115 30.5383C139.936 31.1676 140.453 32.0529 140.667 33.1943H138.923C138.752 32.5329 138.416 32.0049 137.915 31.6103C137.424 31.2156 136.757 31.0183 135.915 31.0183C135.168 31.0183 134.512 31.1943 133.947 31.5463C133.392 31.8983 132.965 32.3996 132.667 33.0503C132.368 33.7009 132.219 34.4796 132.219 35.3863C132.219 36.2929 132.368 37.0769 132.667 37.7383C132.965 38.3889 133.392 38.8903 133.947 39.2423C134.512 39.5836 135.168 39.7543 135.915 39.7543C136.757 39.7543 137.424 39.5676 137.915 39.1943C138.416 38.8103 138.747 38.2929 138.907 37.6423H140.667C140.453 38.7516 139.936 39.6209 139.115 40.2503C138.293 40.8689 137.232 41.1783 135.931 41.1783ZM145.221 41.1783C144.464 41.1783 143.781 41.0076 143.173 40.6663C142.576 40.3143 142.101 39.8236 141.749 39.1943C141.408 38.5543 141.237 37.8129 141.237 36.9703C141.237 36.1276 141.413 35.3916 141.765 34.7623C142.117 34.1223 142.597 33.6316 143.205 33.2903C143.813 32.9383 144.49 32.7623 145.237 32.7623C146.005 32.7623 146.688 32.9383 147.285 33.2903C147.893 33.6316 148.368 34.1169 148.709 34.7463C149.061 35.3756 149.237 36.1169 149.237 36.9703C149.237 37.8129 149.061 38.5543 148.709 39.1943C148.357 39.8236 147.877 40.3143 147.269 40.6663C146.672 41.0076 145.989 41.1783 145.221 41.1783ZM145.221 39.8023C145.658 39.8023 146.053 39.7009 146.405 39.4983C146.768 39.2849 147.056 38.9649 147.269 38.5383C147.493 38.1116 147.605 37.5889 147.605 36.9703C147.605 36.3409 147.498 35.8183 147.285 35.4023C147.072 34.9756 146.784 34.6609 146.421 34.4583C146.069 34.2449 145.68 34.1383 145.253 34.1383C144.837 34.1383 144.442 34.2449 144.069 34.4583C143.706 34.6609 143.413 34.9756 143.189 35.4023C142.976 35.8183 142.869 36.3409 142.869 36.9703C142.869 37.5889 142.976 38.1116 143.189 38.5383C143.413 38.9649 143.701 39.2849 144.053 39.4983C144.416 39.7009 144.805 39.8023 145.221 39.8023Z" fill="#121212"/>
<path d="M88.257 58.9863V51.7143L86.901 52.0143V51.3183L88.593 50.5863H89.277V58.9863H88.257ZM90.5581 58.9863V58.2783C91.1261 57.8303 91.6621 57.3783 92.1661 56.9223C92.6781 56.4583 93.1301 56.0023 93.5221 55.5543C93.9221 55.1063 94.2341 54.6663 94.4581 54.2343C94.6901 53.8023 94.8061 53.3863 94.8061 52.9863C94.8061 52.6903 94.7541 52.4143 94.6501 52.1583C94.5541 51.9023 94.3941 51.6983 94.1701 51.5463C93.9461 51.3863 93.6421 51.3063 93.2581 51.3063C92.8901 51.3063 92.5821 51.3903 92.3341 51.5583C92.0861 51.7183 91.8981 51.9343 91.7701 52.2063C91.6501 52.4783 91.5901 52.7703 91.5901 53.0823H90.6181C90.6181 52.5303 90.7341 52.0583 90.9661 51.6663C91.1981 51.2663 91.5141 50.9623 91.9141 50.7543C92.3141 50.5463 92.7661 50.4423 93.2701 50.4423C94.0141 50.4423 94.6221 50.6543 95.0941 51.0783C95.5741 51.4943 95.8141 52.1183 95.8141 52.9503C95.8141 53.4463 95.6901 53.9383 95.4421 54.4263C95.1941 54.9063 94.8781 55.3743 94.4941 55.8303C94.1101 56.2783 93.6981 56.6983 93.2581 57.0903C92.8261 57.4823 92.4221 57.8343 92.0461 58.1463H96.1021V58.9863H90.5581ZM97.1973 58.9863V50.5863H98.2053V54.3903L101.709 50.5863H102.981L99.8613 53.9343L103.029 58.9863H101.805L99.1413 54.7143L98.2053 55.7103V58.9863H97.1973ZM106.637 58.9863V50.5863H111.749V51.4143H107.645V54.3663H111.137V55.1823H107.645V58.9863H106.637ZM115.082 59.1303C114.522 59.1303 114.018 59.0023 113.57 58.7463C113.122 58.4903 112.766 58.1303 112.502 57.6663C112.246 57.1943 112.118 56.6423 112.118 56.0103C112.118 55.3783 112.25 54.8303 112.514 54.3663C112.778 53.8943 113.134 53.5303 113.582 53.2743C114.038 53.0183 114.546 52.8903 115.106 52.8903C115.666 52.8903 116.17 53.0183 116.618 53.2743C117.066 53.5303 117.418 53.8943 117.674 54.3663C117.938 54.8303 118.07 55.3783 118.07 56.0103C118.07 56.6423 117.938 57.1943 117.674 57.6663C117.41 58.1303 117.05 58.4903 116.594 58.7463C116.146 59.0023 115.642 59.1303 115.082 59.1303ZM115.082 58.2663C115.426 58.2663 115.746 58.1823 116.042 58.0143C116.338 57.8463 116.578 57.5943 116.762 57.2583C116.946 56.9223 117.038 56.5063 117.038 56.0103C117.038 55.5143 116.946 55.0983 116.762 54.7623C116.586 54.4263 116.35 54.1743 116.054 54.0063C115.758 53.8383 115.442 53.7543 115.106 53.7543C114.762 53.7543 114.442 53.8383 114.146 54.0063C113.85 54.1743 113.61 54.4263 113.426 54.7623C113.242 55.0983 113.15 55.5143 113.15 56.0103C113.15 56.5063 113.242 56.9223 113.426 57.2583C113.61 57.5943 113.846 57.8463 114.134 58.0143C114.43 58.1823 114.746 58.2663 115.082 58.2663ZM119.111 58.9863V50.3463H120.119V58.9863H119.111ZM121.412 58.9863V50.3463H122.42V58.9863H121.412ZM126.424 59.1303C125.864 59.1303 125.36 59.0023 124.912 58.7463C124.464 58.4903 124.108 58.1303 123.844 57.6663C123.588 57.1943 123.46 56.6423 123.46 56.0103C123.46 55.3783 123.592 54.8303 123.856 54.3663C124.12 53.8943 124.476 53.5303 124.924 53.2743C125.38 53.0183 125.888 52.8903 126.448 52.8903C127.008 52.8903 127.512 53.0183 127.96 53.2743C128.408 53.5303 128.76 53.8943 129.016 54.3663C129.28 54.8303 129.412 55.3783 129.412 56.0103C129.412 56.6423 129.28 57.1943 129.016 57.6663C128.752 58.1303 128.392 58.4903 127.936 58.7463C127.488 59.0023 126.984 59.1303 126.424 59.1303ZM126.424 58.2663C126.768 58.2663 127.088 58.1823 127.384 58.0143C127.68 57.8463 127.92 57.5943 128.104 57.2583C128.288 56.9223 128.38 56.5063 128.38 56.0103C128.38 55.5143 128.288 55.0983 128.104 54.7623C127.928 54.4263 127.692 54.1743 127.396 54.0063C127.1 53.8383 126.784 53.7543 126.448 53.7543C126.104 53.7543 125.784 53.8383 125.488 54.0063C125.192 54.1743 124.952 54.4263 124.768 54.7623C124.584 55.0983 124.492 55.5143 124.492 56.0103C124.492 56.5063 124.584 56.9223 124.768 57.2583C124.952 57.5943 125.188 57.8463 125.476 58.0143C125.772 58.1823 126.088 58.2663 126.424 58.2663ZM131.431 58.9863L129.691 53.0343H130.699L131.959 57.7023L133.351 53.0343H134.491L135.895 57.7023L137.143 53.0343H138.163L136.423 58.9863H135.391L133.927 54.0783L132.463 58.9863H131.431ZM141.371 59.1303C140.803 59.1303 140.299 59.0023 139.859 58.7463C139.419 58.4823 139.071 58.1183 138.815 57.6543C138.567 57.1903 138.443 56.6423 138.443 56.0103C138.443 55.3863 138.567 54.8423 138.815 54.3783C139.063 53.9063 139.407 53.5423 139.847 53.2863C140.295 53.0223 140.811 52.8903 141.395 52.8903C141.971 52.8903 142.467 53.0223 142.883 53.2863C143.307 53.5423 143.631 53.8823 143.855 54.3063C144.079 54.7303 144.191 55.1863 144.191 55.6743C144.191 55.7623 144.187 55.8503 144.179 55.9383C144.179 56.0263 144.179 56.1263 144.179 56.2383H139.439C139.463 56.6943 139.567 57.0743 139.751 57.3783C139.943 57.6743 140.179 57.8983 140.459 58.0503C140.747 58.2023 141.051 58.2783 141.371 58.2783C141.787 58.2783 142.135 58.1823 142.415 57.9903C142.695 57.7983 142.899 57.5383 143.027 57.2103H144.023C143.863 57.7623 143.555 58.2223 143.099 58.5903C142.651 58.9503 142.075 59.1303 141.371 59.1303ZM141.371 53.7423C140.891 53.7423 140.463 53.8903 140.087 54.1863C139.719 54.4743 139.507 54.8983 139.451 55.4583H143.195C143.171 54.9223 142.987 54.5023 142.643 54.1983C142.299 53.8943 141.875 53.7423 141.371 53.7423ZM145.167 58.9863V53.0343H146.079L146.163 54.1743C146.347 53.7823 146.627 53.4703 147.003 53.2383C147.379 53.0063 147.843 52.8903 148.395 52.8903V53.9463H148.119C147.767 53.9463 147.443 54.0103 147.147 54.1383C146.851 54.2583 146.615 54.4663 146.439 54.7623C146.263 55.0583 146.175 55.4663 146.175 55.9863V58.9863H145.167ZM151.446 59.1303C150.734 59.1303 150.142 58.9503 149.67 58.5903C149.198 58.2303 148.922 57.7423 148.842 57.1263H149.874C149.938 57.4383 150.102 57.7103 150.366 57.9423C150.638 58.1663 151.002 58.2783 151.458 58.2783C151.882 58.2783 152.194 58.1903 152.394 58.0143C152.594 57.8303 152.694 57.6143 152.694 57.3663C152.694 57.0063 152.562 56.7663 152.298 56.6463C152.042 56.5263 151.678 56.4183 151.206 56.3223C150.886 56.2583 150.566 56.1663 150.246 56.0463C149.926 55.9263 149.658 55.7583 149.442 55.5423C149.226 55.3183 149.118 55.0263 149.118 54.6663C149.118 54.1463 149.31 53.7223 149.694 53.3943C150.086 53.0583 150.614 52.8903 151.278 52.8903C151.91 52.8903 152.426 53.0503 152.826 53.3703C153.234 53.6823 153.47 54.1303 153.534 54.7143H152.538C152.498 54.4103 152.366 54.1743 152.142 54.0063C151.926 53.8303 151.634 53.7423 151.266 53.7423C150.906 53.7423 150.626 53.8183 150.426 53.9703C150.234 54.1223 150.138 54.3223 150.138 54.5703C150.138 54.8103 150.262 54.9983 150.51 55.1343C150.766 55.2703 151.11 55.3863 151.542 55.4823C151.91 55.5623 152.258 55.6623 152.586 55.7823C152.922 55.8943 153.194 56.0663 153.402 56.2983C153.618 56.5223 153.726 56.8503 153.726 57.2823C153.734 57.8183 153.53 58.2623 153.114 58.6143C152.706 58.9583 152.15 59.1303 151.446 59.1303Z" fill="#9E9E9E"/>
</g>
<g filter="url(#filter1_d_2011_682)">
<rect x="188.541" y="12.7159" width="151.541" height="66.5408" rx="33.2704" fill="white" shape-rendering="crispEdges"/>
<circle cx="221.811" cy="45.9863" r="21.2704" fill="#FFCC6A"/>
<path d="M230.514 54.3946L224.319 44.665L230.384 37.9933C230.597 37.7534 230.707 37.4393 230.689 37.119C230.672 36.7988 230.53 36.4983 230.292 36.2826C230.055 36.0669 229.742 35.9534 229.422 35.9668C229.101 35.9802 228.799 36.1194 228.58 36.3541L222.967 42.5332L219.139 36.5196C219.029 36.3467 218.877 36.2043 218.698 36.1056C218.518 36.0068 218.316 35.9551 218.111 35.955H213.236C213.018 35.9551 212.804 36.0138 212.616 36.125C212.428 36.2363 212.274 36.396 212.169 36.5873C212.063 36.7787 212.012 36.9948 212.019 37.213C212.026 37.4312 212.091 37.6436 212.209 37.8278L218.404 47.5575L212.335 54.2291C212.225 54.3471 212.139 54.4858 212.083 54.6371C212.027 54.7884 212.002 54.9493 212.009 55.1104C212.016 55.2715 212.054 55.4297 212.123 55.5758C212.191 55.7219 212.288 55.853 212.407 55.9615C212.526 56.0699 212.666 56.1536 212.818 56.2077C212.97 56.2618 213.131 56.2852 213.292 56.2765C213.453 56.2678 213.611 56.2273 213.756 56.1572C213.901 56.0872 214.031 55.989 214.138 55.8683L219.756 49.6893L223.584 55.7028C223.694 55.8757 223.845 56.0182 224.025 56.1169C224.205 56.2156 224.406 56.2674 224.611 56.2675H229.486C229.705 56.2674 229.919 56.2086 230.107 56.0974C230.295 55.9861 230.449 55.8265 230.554 55.6351C230.659 55.4437 230.711 55.2276 230.704 55.0094C230.697 54.7912 230.631 54.5789 230.514 54.3946ZM225.281 53.83L215.457 38.3925H217.442L227.266 53.83H225.281Z" fill="#7551DC"/>
<path d="M258.042 42.2503C256.901 42.2503 255.898 42.0263 255.034 41.5783C254.17 41.1303 253.498 40.4903 253.018 39.6583C252.538 38.8369 252.298 37.8663 252.298 36.7463C252.298 35.6049 252.49 34.5436 252.874 33.5623C253.269 32.5809 253.818 31.7276 254.522 31.0023C255.237 30.2663 256.079 29.6956 257.05 29.2903C258.031 28.8743 259.114 28.6663 260.298 28.6663C261.493 28.6663 262.527 28.8956 263.402 29.3543C264.287 29.8129 264.97 30.4529 265.45 31.2743C265.941 32.0849 266.186 33.0289 266.186 34.1063C266.186 34.7356 266.111 35.3436 265.962 35.9303C265.813 36.5169 265.583 37.0503 265.274 37.5303C264.975 37.9996 264.613 38.3783 264.186 38.6663C263.759 38.9436 263.263 39.0823 262.698 39.0823C262.026 39.0823 261.535 38.8796 261.226 38.4743C260.927 38.0689 260.821 37.5409 260.906 36.8903L260.954 36.3623L261.242 36.9543C260.975 37.6156 260.554 38.1383 259.978 38.5223C259.413 38.8956 258.789 39.0823 258.106 39.0823C257.317 39.0823 256.693 38.8423 256.234 38.3623C255.786 37.8716 255.562 37.2049 255.562 36.3623C255.562 35.7756 255.653 35.2156 255.834 34.6823C256.026 34.1489 256.287 33.6743 256.618 33.2583C256.949 32.8316 257.343 32.4956 257.802 32.2503C258.271 32.0049 258.789 31.8823 259.354 31.8823C259.994 31.8823 260.501 32.0529 260.874 32.3943C261.247 32.7249 261.471 33.2103 261.546 33.8503L261.21 34.0583L261.578 32.0423H262.906L262.122 36.5223C262.047 36.9596 262.069 37.3169 262.186 37.5943C262.303 37.8609 262.549 37.9943 262.922 37.9943C263.253 37.9943 263.541 37.8769 263.786 37.6423C264.031 37.4076 264.239 37.1036 264.41 36.7303C264.581 36.3463 264.709 35.9303 264.794 35.4823C264.879 35.0343 264.922 34.5969 264.922 34.1703C264.922 33.2529 264.725 32.4689 264.33 31.8183C263.946 31.1676 263.397 30.6663 262.682 30.3143C261.967 29.9516 261.114 29.7703 260.122 29.7703C259.162 29.7703 258.282 29.9463 257.482 30.2983C256.682 30.6503 255.989 31.1409 255.402 31.7703C254.815 32.3889 254.362 33.1143 254.042 33.9463C253.722 34.7783 253.562 35.6689 253.562 36.6183C253.562 37.5783 253.749 38.3943 254.122 39.0663C254.506 39.7383 255.05 40.2449 255.754 40.5863C256.469 40.9383 257.311 41.1143 258.282 41.1143C258.751 41.1143 259.215 41.0663 259.674 40.9703C260.143 40.8849 260.575 40.7516 260.97 40.5703L261.242 41.6423C260.751 41.8449 260.234 41.9943 259.69 42.0903C259.157 42.1969 258.607 42.2503 258.042 42.2503ZM258.602 37.8823C259.018 37.8823 259.402 37.7703 259.754 37.5463C260.106 37.3116 260.399 36.9916 260.634 36.5863C260.869 36.1703 261.007 35.6956 261.05 35.1623C261.093 34.7783 261.055 34.4316 260.938 34.1223C260.831 33.8023 260.65 33.5516 260.394 33.3703C260.149 33.1783 259.829 33.0823 259.434 33.0823C259.061 33.0823 258.719 33.1676 258.41 33.3383C258.111 33.5089 257.855 33.7383 257.642 34.0263C257.439 34.3143 257.279 34.6396 257.162 35.0023C257.055 35.3649 257.002 35.7329 257.002 36.1063C257.002 36.6396 257.135 37.0716 257.402 37.4023C257.669 37.7223 258.069 37.8823 258.602 37.8823ZM269.028 38.9863V34.8263L265.332 27.7863H267.14L270.052 33.7063H269.62L272.5 27.7863H274.292L270.628 34.8263V38.9863H269.028ZM276.993 39.1783C276.235 39.1783 275.553 39.0076 274.945 38.6663C274.347 38.3143 273.873 37.8236 273.521 37.1943C273.179 36.5543 273.009 35.8129 273.009 34.9703C273.009 34.1276 273.185 33.3916 273.537 32.7623C273.889 32.1223 274.369 31.6316 274.977 31.2903C275.585 30.9383 276.262 30.7623 277.009 30.7623C277.777 30.7623 278.459 30.9383 279.057 31.2903C279.665 31.6316 280.139 32.1169 280.481 32.7463C280.833 33.3756 281.009 34.1169 281.009 34.9703C281.009 35.8129 280.833 36.5543 280.481 37.1943C280.129 37.8236 279.649 38.3143 279.041 38.6663C278.443 39.0076 277.761 39.1783 276.993 39.1783ZM276.993 37.8023C277.43 37.8023 277.825 37.7009 278.177 37.4983C278.539 37.2849 278.827 36.9649 279.041 36.5383C279.265 36.1116 279.377 35.5889 279.377 34.9703C279.377 34.3409 279.27 33.8183 279.057 33.4023C278.843 32.9756 278.555 32.6609 278.193 32.4583C277.841 32.2449 277.451 32.1383 277.025 32.1383C276.609 32.1383 276.214 32.2449 275.841 32.4583C275.478 32.6609 275.185 32.9756 274.961 33.4023C274.747 33.8183 274.641 34.3409 274.641 34.9703C274.641 35.5889 274.747 36.1116 274.961 36.5383C275.185 36.9649 275.473 37.2849 275.825 37.4983C276.187 37.7009 276.577 37.8023 276.993 37.8023ZM284.859 39.1783C284.23 39.1783 283.686 39.0503 283.227 38.7943C282.768 38.5383 282.411 38.1543 282.155 37.6423C281.91 37.1196 281.787 36.4689 281.787 35.6903V30.9543H283.387V35.5303C283.387 36.2876 283.547 36.8583 283.867 37.2423C284.198 37.6263 284.672 37.8183 285.291 37.8183C285.718 37.8183 286.096 37.7169 286.427 37.5143C286.768 37.3116 287.035 37.0183 287.227 36.6343C287.419 36.2503 287.515 35.7809 287.515 35.2263V30.9543H289.115V38.9863H287.691L287.579 37.6103C287.334 38.0903 286.971 38.4743 286.491 38.7623C286.022 39.0396 285.478 39.1783 284.859 39.1783ZM290.33 38.9863V30.9543H291.77L291.914 32.4743C292.095 32.1116 292.325 31.8076 292.602 31.5623C292.89 31.3063 293.226 31.1089 293.61 30.9703C294.005 30.8316 294.447 30.7623 294.938 30.7623V32.4423H294.41C294.069 32.4423 293.749 32.4849 293.45 32.5703C293.151 32.6556 292.885 32.7943 292.65 32.9863C292.426 33.1783 292.25 33.4396 292.122 33.7703C291.994 34.1009 291.93 34.5116 291.93 35.0023V38.9863H290.33ZM300.472 39.1783C299.373 39.1783 298.424 38.9383 297.624 38.4583C296.824 37.9676 296.205 37.2903 295.768 36.4263C295.341 35.5516 295.128 34.5383 295.128 33.3863C295.128 32.2449 295.341 31.2369 295.768 30.3623C296.205 29.4876 296.824 28.8103 297.624 28.3303C298.424 27.8396 299.373 27.5943 300.472 27.5943C301.773 27.5943 302.834 27.9089 303.656 28.5383C304.477 29.1676 304.994 30.0529 305.208 31.1943H303.464C303.293 30.5329 302.957 30.0049 302.456 29.6103C301.965 29.2156 301.298 29.0183 300.456 29.0183C299.709 29.0183 299.053 29.1943 298.488 29.5463C297.933 29.8983 297.506 30.3996 297.208 31.0503C296.909 31.7009 296.76 32.4796 296.76 33.3863C296.76 34.2929 296.909 35.0769 297.208 35.7383C297.506 36.3889 297.933 36.8903 298.488 37.2423C299.053 37.5836 299.709 37.7543 300.456 37.7543C301.298 37.7543 301.965 37.5676 302.456 37.1943C302.957 36.8103 303.288 36.2929 303.448 35.6423H305.208C304.994 36.7516 304.477 37.6209 303.656 38.2503C302.834 38.8689 301.773 39.1783 300.472 39.1783ZM309.762 39.1783C309.005 39.1783 308.322 39.0076 307.714 38.6663C307.117 38.3143 306.642 37.8236 306.29 37.1943C305.949 36.5543 305.778 35.8129 305.778 34.9703C305.778 34.1276 305.954 33.3916 306.306 32.7623C306.658 32.1223 307.138 31.6316 307.746 31.2903C308.354 30.9383 309.031 30.7623 309.778 30.7623C310.546 30.7623 311.229 30.9383 311.826 31.2903C312.434 31.6316 312.909 32.1169 313.25 32.7463C313.602 33.3756 313.778 34.1169 313.778 34.9703C313.778 35.8129 313.602 36.5543 313.25 37.1943C312.898 37.8236 312.418 38.3143 311.81 38.6663C311.213 39.0076 310.53 39.1783 309.762 39.1783ZM309.762 37.8023C310.199 37.8023 310.594 37.7009 310.946 37.4983C311.309 37.2849 311.597 36.9649 311.81 36.5383C312.034 36.1116 312.146 35.5889 312.146 34.9703C312.146 34.3409 312.039 33.8183 311.826 33.4023C311.613 32.9756 311.325 32.6609 310.962 32.4583C310.61 32.2449 310.221 32.1383 309.794 32.1383C309.378 32.1383 308.983 32.2449 308.61 32.4583C308.247 32.6609 307.954 32.9756 307.73 33.4023C307.517 33.8183 307.41 34.3409 307.41 34.9703C307.41 35.5889 307.517 36.1116 307.73 36.5383C307.954 36.9649 308.242 37.2849 308.594 37.4983C308.957 37.7009 309.346 37.8023 309.762 37.8023Z" fill="#121212"/>
<path d="M254.742 61.1303C254.19 61.1303 253.694 61.0303 253.254 60.8303C252.814 60.6223 252.466 60.3383 252.21 59.9783C251.962 59.6103 251.838 59.1863 251.838 58.7063C251.838 58.1943 251.986 57.7343 252.282 57.3263C252.586 56.9183 252.986 56.6463 253.482 56.5103C253.026 56.3583 252.674 56.1143 252.426 55.7783C252.178 55.4423 252.054 55.0743 252.054 54.6743C252.054 54.2663 252.162 53.8943 252.378 53.5583C252.594 53.2143 252.902 52.9423 253.302 52.7423C253.702 52.5423 254.182 52.4423 254.742 52.4423C255.302 52.4423 255.782 52.5423 256.182 52.7423C256.582 52.9423 256.89 53.2143 257.106 53.5583C257.322 53.8943 257.43 54.2663 257.43 54.6743C257.43 55.0663 257.306 55.4343 257.058 55.7783C256.81 56.1143 256.458 56.3583 256.002 56.5103C256.498 56.6463 256.894 56.9183 257.19 57.3263C257.494 57.7343 257.646 58.1943 257.646 58.7063C257.646 59.1863 257.518 59.6103 257.262 59.9783C257.014 60.3383 256.67 60.6223 256.23 60.8303C255.79 61.0303 255.294 61.1303 254.742 61.1303ZM254.742 56.1503C255.254 56.1503 255.658 56.0223 255.954 55.7663C256.258 55.5023 256.41 55.1583 256.41 54.7343C256.41 54.2623 256.262 53.9063 255.966 53.6663C255.67 53.4263 255.262 53.3063 254.742 53.3063C254.222 53.3063 253.814 53.4263 253.518 53.6663C253.23 53.9063 253.086 54.2623 253.086 54.7343C253.086 55.1583 253.234 55.5023 253.53 55.7663C253.826 56.0223 254.23 56.1503 254.742 56.1503ZM254.742 60.2423C255.374 60.2423 255.846 60.0983 256.158 59.8103C256.478 59.5143 256.638 59.1263 256.638 58.6463C256.638 58.1023 256.466 57.6903 256.122 57.4103C255.778 57.1303 255.318 56.9903 254.742 56.9903C254.166 56.9903 253.706 57.1303 253.362 57.4103C253.018 57.6903 252.846 58.1023 252.846 58.6463C252.846 59.1263 253.002 59.5143 253.314 59.8103C253.634 60.0983 254.11 60.2423 254.742 60.2423ZM258.934 60.9863V52.5863H259.942V56.3903L263.446 52.5863H264.718L261.598 55.9343L264.766 60.9863H263.542L260.878 56.7143L259.942 57.7103V60.9863H258.934ZM268.374 60.9863V52.5863H273.486V53.4143H269.382V56.3663H272.874V57.1823H269.382V60.9863H268.374ZM276.819 61.1303C276.259 61.1303 275.755 61.0023 275.307 60.7463C274.859 60.4903 274.503 60.1303 274.239 59.6663C273.983 59.1943 273.855 58.6423 273.855 58.0103C273.855 57.3783 273.987 56.8303 274.251 56.3663C274.515 55.8943 274.871 55.5303 275.319 55.2743C275.775 55.0183 276.283 54.8903 276.843 54.8903C277.403 54.8903 277.907 55.0183 278.355 55.2743C278.803 55.5303 279.155 55.8943 279.411 56.3663C279.675 56.8303 279.807 57.3783 279.807 58.0103C279.807 58.6423 279.675 59.1943 279.411 59.6663C279.147 60.1303 278.787 60.4903 278.331 60.7463C277.883 61.0023 277.379 61.1303 276.819 61.1303ZM276.819 60.2663C277.163 60.2663 277.483 60.1823 277.779 60.0143C278.075 59.8463 278.315 59.5943 278.499 59.2583C278.683 58.9223 278.775 58.5063 278.775 58.0103C278.775 57.5143 278.683 57.0983 278.499 56.7623C278.323 56.4263 278.087 56.1743 277.791 56.0063C277.495 55.8383 277.179 55.7543 276.843 55.7543C276.499 55.7543 276.179 55.8383 275.883 56.0063C275.587 56.1743 275.347 56.4263 275.163 56.7623C274.979 57.0983 274.887 57.5143 274.887 58.0103C274.887 58.5063 274.979 58.9223 275.163 59.2583C275.347 59.5943 275.583 59.8463 275.871 60.0143C276.167 60.1823 276.483 60.2663 276.819 60.2663ZM280.848 60.9863V52.3463H281.856V60.9863H280.848ZM283.148 60.9863V52.3463H284.156V60.9863H283.148ZM288.161 61.1303C287.601 61.1303 287.097 61.0023 286.649 60.7463C286.201 60.4903 285.845 60.1303 285.581 59.6663C285.325 59.1943 285.197 58.6423 285.197 58.0103C285.197 57.3783 285.329 56.8303 285.593 56.3663C285.857 55.8943 286.213 55.5303 286.661 55.2743C287.117 55.0183 287.625 54.8903 288.185 54.8903C288.745 54.8903 289.249 55.0183 289.697 55.2743C290.145 55.5303 290.497 55.8943 290.753 56.3663C291.017 56.8303 291.149 57.3783 291.149 58.0103C291.149 58.6423 291.017 59.1943 290.753 59.6663C290.489 60.1303 290.129 60.4903 289.673 60.7463C289.225 61.0023 288.721 61.1303 288.161 61.1303ZM288.161 60.2663C288.505 60.2663 288.825 60.1823 289.121 60.0143C289.417 59.8463 289.657 59.5943 289.841 59.2583C290.025 58.9223 290.117 58.5063 290.117 58.0103C290.117 57.5143 290.025 57.0983 289.841 56.7623C289.665 56.4263 289.429 56.1743 289.133 56.0063C288.837 55.8383 288.521 55.7543 288.185 55.7543C287.841 55.7543 287.521 55.8383 287.225 56.0063C286.929 56.1743 286.689 56.4263 286.505 56.7623C286.321 57.0983 286.229 57.5143 286.229 58.0103C286.229 58.5063 286.321 58.9223 286.505 59.2583C286.689 59.5943 286.925 59.8463 287.213 60.0143C287.509 60.1823 287.825 60.2663 288.161 60.2663ZM293.168 60.9863L291.428 55.0343H292.436L293.696 59.7023L295.088 55.0343H296.228L297.632 59.7023L298.88 55.0343H299.9L298.16 60.9863H297.128L295.664 56.0783L294.2 60.9863H293.168ZM303.108 61.1303C302.54 61.1303 302.036 61.0023 301.596 60.7463C301.156 60.4823 300.808 60.1183 300.552 59.6543C300.304 59.1903 300.18 58.6423 300.18 58.0103C300.18 57.3863 300.304 56.8423 300.552 56.3783C300.8 55.9063 301.144 55.5423 301.584 55.2863C302.032 55.0223 302.548 54.8903 303.132 54.8903C303.708 54.8903 304.204 55.0223 304.62 55.2863C305.044 55.5423 305.368 55.8823 305.592 56.3063C305.816 56.7303 305.928 57.1863 305.928 57.6743C305.928 57.7623 305.924 57.8503 305.916 57.9383C305.916 58.0263 305.916 58.1263 305.916 58.2383H301.176C301.2 58.6943 301.304 59.0743 301.488 59.3783C301.68 59.6743 301.916 59.8983 302.196 60.0503C302.484 60.2023 302.788 60.2783 303.108 60.2783C303.524 60.2783 303.872 60.1823 304.152 59.9903C304.432 59.7983 304.636 59.5383 304.764 59.2103H305.76C305.6 59.7623 305.292 60.2223 304.836 60.5903C304.388 60.9503 303.812 61.1303 303.108 61.1303ZM303.108 55.7423C302.628 55.7423 302.2 55.8903 301.824 56.1863C301.456 56.4743 301.244 56.8983 301.188 57.4583H304.932C304.908 56.9223 304.724 56.5023 304.38 56.1983C304.036 55.8943 303.612 55.7423 303.108 55.7423ZM306.904 60.9863V55.0343H307.816L307.9 56.1743C308.084 55.7823 308.364 55.4703 308.74 55.2383C309.116 55.0063 309.58 54.8903 310.132 54.8903V55.9463H309.856C309.504 55.9463 309.18 56.0103 308.884 56.1383C308.588 56.2583 308.352 56.4663 308.176 56.7623C308 57.0583 307.912 57.4663 307.912 57.9863V60.9863H306.904ZM313.183 61.1303C312.471 61.1303 311.879 60.9503 311.407 60.5903C310.935 60.2303 310.659 59.7423 310.579 59.1263H311.611C311.675 59.4383 311.839 59.7103 312.103 59.9423C312.375 60.1663 312.739 60.2783 313.195 60.2783C313.619 60.2783 313.931 60.1903 314.131 60.0143C314.331 59.8303 314.431 59.6143 314.431 59.3663C314.431 59.0063 314.299 58.7663 314.035 58.6463C313.779 58.5263 313.415 58.4183 312.943 58.3223C312.623 58.2583 312.303 58.1663 311.983 58.0463C311.663 57.9263 311.395 57.7583 311.179 57.5423C310.963 57.3183 310.855 57.0263 310.855 56.6663C310.855 56.1463 311.047 55.7223 311.431 55.3943C311.823 55.0583 312.351 54.8903 313.015 54.8903C313.647 54.8903 314.163 55.0503 314.563 55.3703C314.971 55.6823 315.207 56.1303 315.271 56.7143H314.275C314.235 56.4103 314.103 56.1743 313.879 56.0063C313.663 55.8303 313.371 55.7423 313.003 55.7423C312.643 55.7423 312.363 55.8183 312.163 55.9703C311.971 56.1223 311.875 56.3223 311.875 56.5703C311.875 56.8103 311.999 56.9983 312.247 57.1343C312.503 57.2703 312.847 57.3863 313.279 57.4823C313.647 57.5623 313.995 57.6623 314.323 57.7823C314.659 57.8943 314.931 58.0663 315.139 58.2983C315.355 58.5223 315.463 58.8503 315.463 59.2823C315.471 59.8183 315.267 60.2623 314.851 60.6143C314.443 60.9583 313.887 61.1303 313.183 61.1303Z" fill="#9E9E9E"/>
</g>
<defs>
<filter id="filter0_d_2011_682" x="-10.2351" y="-1.90735e-06" width="203.448" height="115.448" filterUnits="userSpaceOnUse" color-interpolation-filters="sRGB">
<feFlood flood-opacity="0" result="BackgroundImageFix"/>
<feColorMatrix in="SourceAlpha" type="matrix" values="0 0 0 0 0 0 0 0 0 0 0 0 0 0 0 0 0 0 127 0" result="hardAlpha"/>
<feOffset dx="-9.78145" dy="11.7377"/>
<feGaussianBlur stdDeviation="12.2268"/>
<feComposite in2="hardAlpha" operator="out"/>
<feColorMatrix type="matrix" values="0 0 0 0 0.384371 0 0 0 0 0.102708 0 0 0 0 0.483333 0 0 0 0.05 0"/>
<feBlend mode="normal" in2="BackgroundImageFix" result="effect1_dropShadow_2011_682"/>
<feBlend mode="normal" in="SourceGraphic" in2="effect1_dropShadow_2011_682" result="shape"/>
</filter>
<filter id="filter1_d_2011_682" x="154.306" y="-1.90735e-06" width="200.448" height="115.448" filterUnits="userSpaceOnUse" color-interpolation-filters="sRGB">
<feFlood flood-opacity="0" result="BackgroundImageFix"/>
<feColorMatrix in="SourceAlpha" type="matrix" values="0 0 0 0 0 0 0 0 0 0 0 0 0 0 0 0 0 0 127 0" result="hardAlpha"/>
<feOffset dx="-9.78145" dy="11.7377"/>
<feGaussianBlur stdDeviation="12.2268"/>
<feComposite in2="hardAlpha" operator="out"/>
<feColorMatrix type="matrix" values="0 0 0 0 0.384371 0 0 0 0 0.102708 0 0 0 0 0.483333 0 0 0 0.05 0"/>
<feBlend mode="normal" in2="BackgroundImageFix" result="effect1_dropShadow_2011_682"/>
<feBlend mode="normal" in="SourceGraphic" in2="effect1_dropShadow_2011_682" result="shape"/>
</filter>
</defs>
</svg>
